# xmcd
#
# Track frame offsets:
#	150
#	11004
#	28686
#	44311
#	60633
#	73657
#	93264
#	111094
#	125141
#	146950
#
# Disc length: 2224 seconds
#
# Revision: 0
# Processed by: cddbd v1.5.2PL0 Copyright (c) Steve Scherf et al.
# Submitted via: EasyCDDAExtractor 8.2.3.1
#
DISCID=9008ae0a
DTITLE=Garth Brooks - Ropin' The Wind
DYEAR=1991
DGENRE=Country
TTITLE0=Against The Grain
TTITLE1=Rodeo
TTITLE2=What She's Doing Now
TTITLE3=Burning Bridges
TTITLE4=Papa Loved Mama
TTITLE5=Shameless
TTITLE6=Cold Shoulder
TTITLE7=We Bury The Hatchet
TTITLE8=In Lonesome Dove
TTITLE9=The River
EXTD=
EXTT0=
EXTT1=
EXTT2=
EXTT3=
EXTT4=
EXTT5=
EXTT6=
EXTT7=
EXTT8=
EXTT9=
PLAYORDER=
